<svg width="30" height="31" viewBox="0 0 30 31" fill="none" xmlns="http://www.w3.org/2000/svg">
<path fill-rule="evenodd" clip-rule="evenodd" d="M30 15.5C30 23.7843 23.2843 30.5 15 30.5C6.71573 30.5 0 23.7843 0 15.5C0 7.21573 6.71573 0.5 15 0.5C23.2843 0.5 30 7.21573 30 15.5ZM15.5374 11.5737C14.0785 12.1805 11.1626 13.4365 6.78978 15.3417C6.0797 15.624 5.70773 15.9003 5.67387 16.1704C5.61664 16.6269 6.1883 16.8066 6.96675 17.0514C7.07264 17.0847 7.18235 17.1192 7.29483 17.1558C8.06071 17.4047 9.09094 17.696 9.62652 17.7075C10.1123 17.718 10.6546 17.5178 11.2532 17.1067C15.3389 14.3488 17.4479 12.9548 17.5803 12.9247C17.6737 12.9035 17.8032 12.8769 17.8909 12.9548C17.9786 13.0328 17.97 13.1804 17.9607 13.22C17.904 13.4614 15.6601 15.5476 14.4988 16.6272C14.1368 16.9638 13.88 17.2025 13.8275 17.2571C13.7099 17.3792 13.5901 17.4947 13.4749 17.6058C12.7634 18.2917 12.2298 18.806 13.5044 19.646C14.117 20.0496 14.6071 20.3834 15.0961 20.7164C15.6301 21.0801 16.1628 21.4428 16.8519 21.8946C17.0275 22.0097 17.1952 22.1292 17.3585 22.2457C17.98 22.6887 18.5383 23.0868 19.2281 23.0233C19.629 22.9864 20.043 22.6095 20.2533 21.4855C20.7502 18.8289 21.7269 13.0731 21.9527 10.7012C21.9725 10.4934 21.9476 10.2275 21.9276 10.1107C21.9076 9.99397 21.8659 9.82763 21.7141 9.7045C21.5344 9.55867 21.257 9.52792 21.1329 9.5301C20.5687 9.54004 19.7031 9.84102 15.5374 11.5737Z" fill="#A3ABB2"/>
</svg>
