<svg width="31" height="31" viewBox="0 0 31 31" fill="none" xmlns="http://www.w3.org/2000/svg">
<path d="M27.8715 0.5H2.30815C2.0208 0.496033 1.73547 0.548371 1.46846 0.654026C1.20146 0.75968 0.958008 0.916581 0.752013 1.11577C0.546018 1.31495 0.381516 1.55253 0.2679 1.81491C0.154284 2.0773 0.09378 2.35937 0.0898438 2.645V28.355C0.09378 28.6406 0.154284 28.9227 0.2679 29.1851C0.381516 29.4475 0.546018 29.685 0.752013 29.8842C0.958008 30.0834 1.20146 30.2403 1.46846 30.346C1.73547 30.4516 2.0208 30.504 2.30815 30.5H27.8715C28.1589 30.504 28.4442 30.4516 28.7112 30.346C28.9782 30.2403 29.2217 30.0834 29.4277 29.8842C29.6337 29.685 29.7982 29.4475 29.9118 29.1851C30.0254 28.9227 30.0859 28.6406 30.0898 28.355V2.645C30.0859 2.35937 30.0254 2.0773 29.9118 1.81491C29.7982 1.55253 29.6337 1.31495 29.4277 1.11577C29.2217 0.916581 28.9782 0.75968 28.7112 0.654026C28.4442 0.548371 28.1589 0.496033 27.8715 0.5V0.5ZM9.18944 25.61H4.66228V12.11H9.18944V25.61ZM6.92586 10.22C6.30151 10.22 5.70273 9.97346 5.26124 9.53463C4.81976 9.09579 4.57174 8.50061 4.57174 7.88C4.57174 7.25939 4.81976 6.66421 5.26124 6.22537C5.70273 5.78654 6.30151 5.54 6.92586 5.54C7.25739 5.50263 7.59313 5.53528 7.91108 5.63582C8.22904 5.73637 8.52205 5.90253 8.77092 6.12344C9.01979 6.34435 9.21891 6.61502 9.35524 6.91772C9.49158 7.22043 9.56205 7.54834 9.56205 7.88C9.56205 8.21166 9.49158 8.53957 9.35524 8.84228C9.21891 9.14498 9.01979 9.41565 8.77092 9.63656C8.52205 9.85747 8.22904 10.0236 7.91108 10.1242C7.59313 10.2247 7.25739 10.2574 6.92586 10.22V10.22ZM25.5174 25.61H20.9902V18.365C20.9902 16.55 20.3414 15.365 18.6965 15.365C18.1874 15.3687 17.6917 15.5274 17.2762 15.8198C16.8607 16.1121 16.5453 16.524 16.3725 17C16.2544 17.3526 16.2033 17.7239 16.2216 18.095V25.595H11.6945C11.6945 25.595 11.6945 13.325 11.6945 12.095H16.2216V14C16.6329 13.2907 17.2311 12.7063 17.9517 12.3098C18.6723 11.9133 19.4881 11.7198 20.3112 11.75C23.3293 11.75 25.5174 13.685 25.5174 17.84V25.61Z" fill="#A3ABB2"/>
</svg>
