<svg width="30" height="31" viewBox="0 0 30 31" fill="none" xmlns="http://www.w3.org/2000/svg">
<path fill-rule="evenodd" clip-rule="evenodd" d="M2.10884 2.60883C0 4.71767 0 8.11178 0 14.9V16.1C0 22.8882 0 26.2823 2.10884 28.3912C4.21767 30.5 7.61182 30.5 14.4001 30.5H15.6001C22.3883 30.5 25.7825 30.5 27.8913 28.3912C30 26.2823 30 22.8882 30 16.1V14.9C30 8.11178 30 4.71767 27.8913 2.60883C25.7825 0.5 22.3883 0.5 15.6001 0.5H14.4001C7.61182 0.5 4.21767 0.5 2.10884 2.60883ZM5.06256 9.62507C5.22507 17.4251 9.12506 22.1125 15.9626 22.1125H16.3501V17.65C18.8627 17.9 20.7625 19.7376 21.525 22.1125H25.0752C24.1002 18.5626 21.5375 16.6 19.9375 15.85C21.5375 14.9251 23.7875 12.6751 24.3251 9.62507H21.0999C20.3999 12.1001 18.3252 14.35 16.3501 14.5625V9.62507H13.125V18.275C11.1251 17.7751 8.60009 15.3501 8.48759 9.62507H5.06256Z" fill="#A3ABB2"/>
</svg>
