<svg width="30" height="30" viewBox="0 0 30 30" fill="none" xmlns="http://www.w3.org/2000/svg">
<path fill-rule="evenodd" clip-rule="evenodd" d="M2.10884 2.10883C0 4.21767 0 7.61178 0 14.4V15.6C0 22.3882 0 25.7823 2.10884 27.8912C4.21767 30 7.61182 30 14.4001 30H15.6001C22.3883 30 25.7825 30 27.8913 27.8912C30 25.7823 30 22.3882 30 15.6V14.4C30 7.61178 30 4.21767 27.8913 2.10883C25.7825 0 22.3883 0 15.6001 0H14.4001C7.61182 0 4.21767 0 2.10884 2.10883ZM5.06256 9.12507C5.22507 16.9251 9.12506 21.6125 15.9626 21.6125H16.3501V17.15C18.8627 17.4 20.7625 19.2376 21.525 21.6125H25.0752C24.1002 18.0626 21.5375 16.1 19.9375 15.35C21.5375 14.4251 23.7875 12.1751 24.3251 9.12507H21.0999C20.3999 11.6001 18.3252 13.85 16.3501 14.0625V9.12507H13.125V17.775C11.1251 17.2751 8.60009 14.8501 8.48759 9.12507H5.06256Z" fill="#F1F2F4"/>
</svg>
