<svg width="12" height="14" viewBox="0 0 12 14" fill="none" xmlns="http://www.w3.org/2000/svg">
<path d="M11.2414 12.6667H0.749425C0.550665 12.6667 0.360046 12.7369 0.219502 12.8619C0.0789572 12.987 0 13.1565 0 13.3334C0 13.5102 0.0789572 13.6797 0.219502 13.8048C0.360046 13.9298 0.550665 14 0.749425 14H11.2414C11.4401 14 11.6308 13.9298 11.7713 13.8048C11.9118 13.6797 11.9908 13.5102 11.9908 13.3334C11.9908 13.1565 11.9118 12.987 11.7713 12.8619C11.6308 12.7369 11.4401 12.6667 11.2414 12.6667ZM5.46331 11.14C5.53458 11.2007 5.61863 11.2483 5.71062 11.28C5.80033 11.3153 5.89732 11.3335 5.9954 11.3335C6.09348 11.3335 6.19048 11.3153 6.28018 11.28C6.37218 11.2483 6.45622 11.2007 6.52749 11.14L9.52519 8.47335C9.66631 8.34782 9.74559 8.17755 9.74559 8.00002C9.74559 7.82249 9.66631 7.65222 9.52519 7.52669C9.38407 7.40115 9.19268 7.33063 8.9931 7.33063C8.79353 7.33063 8.60213 7.40115 8.46101 7.52669L6.74483 9.06002V1.33335C6.74483 1.15654 6.66587 0.986973 6.52533 0.861949C6.38478 0.736925 6.19416 0.666687 5.9954 0.666687C5.79664 0.666687 5.60602 0.736925 5.46548 0.861949C5.32493 0.986973 5.24598 1.15654 5.24598 1.33335V9.06002L3.52979 7.52669C3.45992 7.46453 3.37696 7.41522 3.28567 7.38158C3.19437 7.34794 3.09652 7.33063 2.9977 7.33063C2.89888 7.33063 2.80103 7.34794 2.70973 7.38158C2.61844 7.41522 2.53548 7.46453 2.46561 7.52669C2.39573 7.58885 2.34031 7.66264 2.30249 7.74385C2.26467 7.82507 2.24521 7.91211 2.24521 8.00002C2.24521 8.08793 2.26467 8.17497 2.30249 8.25619C2.34031 8.3374 2.39573 8.41119 2.46561 8.47335L5.46331 11.14Z" fill="#A3ABB2"/>
</svg>
