<svg width="31" height="30" viewBox="0 0 31 30" fill="none" xmlns="http://www.w3.org/2000/svg">
<path d="M27.8715 -3.43945e-05H2.30815C2.0208 -0.00400133 1.73547 0.0483369 1.46846 0.153991C1.20146 0.259646 0.958008 0.416547 0.752013 0.615734C0.546018 0.814921 0.381516 1.05249 0.2679 1.31488C0.154284 1.57727 0.09378 1.85933 0.0898438 2.14497V27.855C0.09378 28.1406 0.154284 28.4227 0.2679 28.6851C0.381516 28.9474 0.546018 29.185 0.752013 29.3842C0.958008 29.5834 1.20146 29.7403 1.46846 29.8459C1.73547 29.9516 2.0208 30.0039 2.30815 30H27.8715C28.1589 30.0039 28.4442 29.9516 28.7112 29.8459C28.9782 29.7403 29.2217 29.5834 29.4277 29.3842C29.6337 29.185 29.7982 28.9474 29.9118 28.6851C30.0254 28.4227 30.0859 28.1406 30.0898 27.855V2.14497C30.0859 1.85933 30.0254 1.57727 29.9118 1.31488C29.7982 1.05249 29.6337 0.814921 29.4277 0.615734C29.2217 0.416547 28.9782 0.259646 28.7112 0.153991C28.4442 0.0483369 28.1589 -0.00400133 27.8715 -3.43945e-05V-3.43945e-05ZM9.18944 25.11H4.66228V11.61H9.18944V25.11ZM6.92586 9.71996C6.30151 9.71996 5.70273 9.47343 5.26124 9.0346C4.81976 8.59576 4.57174 8.00057 4.57174 7.37997C4.57174 6.75936 4.81976 6.16417 5.26124 5.72534C5.70273 5.2865 6.30151 5.03997 6.92586 5.03997C7.25739 5.00259 7.59313 5.03525 7.91108 5.13579C8.22904 5.23633 8.52205 5.4025 8.77092 5.62341C9.01979 5.84432 9.21891 6.11498 9.35524 6.41769C9.49158 6.72039 9.56205 7.04831 9.56205 7.37997C9.56205 7.71162 9.49158 8.03954 9.35524 8.34224C9.21891 8.64495 9.01979 8.91562 8.77092 9.13652C8.52205 9.35743 8.22904 9.5236 7.91108 9.62414C7.59313 9.72468 7.25739 9.75734 6.92586 9.71996V9.71996ZM25.5174 25.11H20.9902V17.865C20.9902 16.05 20.3414 14.865 18.6965 14.865C18.1874 14.8687 17.6917 15.0274 17.2762 15.3197C16.8607 15.6121 16.5453 16.024 16.3725 16.5C16.2544 16.8525 16.2033 17.2238 16.2216 17.595V25.095H11.6945C11.6945 25.095 11.6945 12.825 11.6945 11.595H16.2216V13.5C16.6329 12.7906 17.2311 12.2062 17.9517 11.8098C18.6723 11.4133 19.4881 11.2197 20.3112 11.25C23.3293 11.25 25.5174 13.185 25.5174 17.34V25.11Z" fill="#F1F2F4"/>
</svg>
